<svg width="283" height="51" viewBox="0 0 283 51" fill="none" xmlns="http://www.w3.org/2000/svg">
<path d="M82.1401 37.893C78.4049 37.893 76.0362 34.8866 76.0362 30.2859C76.0362 22.4511 81.138 14.5707 87.5607 14.5707C90.5671 14.5707 92.5258 16.575 92.7536 19.4447L95.4866 8.148C95.7144 7.14587 95.851 6.41704 95.851 5.87043C95.851 4.68609 95.3044 4.09393 94.2112 3.41066V3.31956H102.912L95.4866 33.2923C95.3955 33.6112 95.3955 33.8845 95.3955 34.1578C95.3955 35.1144 95.9422 35.7065 96.8987 35.7065C97.4453 35.7065 98.0831 35.5243 98.8119 35.1144L98.8574 35.2055C97.2631 37.0731 95.4411 37.893 93.4824 37.893C90.886 37.893 89.3372 36.2987 89.3372 33.8389C89.3372 33.5201 89.4283 32.9735 89.565 32.3358C87.9251 35.4788 85.602 37.893 82.1401 37.893ZM82.3223 31.197C82.3223 33.7023 83.1422 35.2055 85.0098 35.2055C87.1963 35.2055 89.4739 32.4724 90.476 28.4183L91.7059 23.5443C92.0247 22.3145 92.2069 21.2212 92.2069 20.3102C92.2069 17.8504 90.9771 16.575 89.3828 16.575C85.5564 16.575 82.3223 25.4119 82.3223 31.197ZM106.556 37.893C101.773 37.893 98.4937 34.75 98.4937 29.3749C98.4937 22.0867 104.461 14.5707 112.114 14.5707C115.894 14.5707 118.126 16.4839 118.126 19.2625C118.126 24.3187 112.205 26.5052 104.871 26.7785C104.734 27.644 104.643 28.5094 104.643 29.3294C104.643 33.3379 106.602 35.2055 109.426 35.2055C111.886 35.2055 113.753 33.9756 115.621 31.5158H115.849C113.981 35.7065 110.61 37.893 106.556 37.893ZM112.022 15.3907C109.198 15.3907 105.964 20.9479 104.962 26.1863C109.927 25.3664 113.571 21.7678 113.571 17.4405C113.571 16.2106 113.07 15.3907 112.022 15.3907ZM123.941 37.893C119.158 37.893 115.878 34.75 115.878 29.3749C115.878 22.0867 121.845 14.5707 129.498 14.5707C133.279 14.5707 135.511 16.4839 135.511 19.2625C135.511 24.3187 129.589 26.5052 122.255 26.7785C122.119 27.644 122.027 28.5094 122.027 29.3294C122.027 33.3379 123.986 35.2055 126.81 35.2055C129.27 35.2055 131.138 33.9756 133.005 31.5158H133.233C131.365 35.7065 127.995 37.893 123.941 37.893ZM129.407 15.3907C126.583 15.3907 123.348 20.9479 122.346 26.1863C127.311 25.3664 130.955 21.7678 130.955 17.4405C130.955 16.2106 130.454 15.3907 129.407 15.3907ZM150.298 21.3123C150.298 18.8981 149.57 17.2583 147.748 17.2583C145.561 17.2583 143.101 20.0824 142.145 24.1821L140.915 28.965C140.596 30.1493 140.505 31.197 140.505 32.0624C140.505 34.6133 141.735 35.8888 143.375 35.8888C147.155 35.8888 150.298 27.234 150.298 21.3123ZM139.958 33.019L136.36 47.5043H130.165L137.043 19.8547C137.316 18.8526 137.453 18.1693 137.453 17.6227C137.453 16.4839 136.952 15.8462 135.95 15.1173V15.0262H144.422L143.101 20.1735C144.741 17.0305 147.246 14.5707 150.663 14.5707C154.444 14.5707 156.584 17.6682 156.584 22.2689C156.584 30.0126 151.71 37.893 145.242 37.893C142.19 37.893 140.14 35.8888 139.958 33.019ZM176.995 23.4532L174.581 33.2923C174.08 35.4332 175.583 36.3443 177.998 35.1144V35.2055C176.358 37.0731 174.627 37.893 172.531 37.893C169.935 37.893 168.386 36.2532 168.432 33.7478C168.432 33.3379 168.523 32.8824 168.66 32.3813C166.974 35.5243 164.788 37.8475 161.326 37.8475C157.636 37.8475 155.359 34.8866 155.359 30.3315C155.359 22.4511 160.87 14.5707 167.566 14.5707C170.755 14.5707 172.486 16.4839 173.078 19.0803C174.627 16.7116 176.859 15.2085 179.455 14.6163C178.499 17.3494 177.633 20.7657 176.995 23.4532ZM164.195 35.251C166.291 35.251 168.568 32.3813 169.571 28.4183L170.937 23.0888C171.301 21.6312 171.484 20.4469 171.484 19.5358C171.484 17.2127 170.39 16.1195 168.933 16.1195C165.061 16.1195 161.645 25.4119 161.645 31.2425C161.645 33.7478 162.465 35.251 164.195 35.251ZM191.626 3.31956L186.843 22.36C188.984 18.0782 192.628 14.5707 196.591 14.5707C199.324 14.5707 201.1 16.3928 201.1 18.8981C201.1 23.0888 197.547 25.6397 193.038 26.4141L195.452 33.429C195.907 34.7044 196.727 35.4788 197.866 35.4788C198.367 35.4788 198.959 35.2966 199.597 34.9322V35.0233C198.231 36.9364 196.135 37.893 193.994 37.893C191.352 37.893 189.94 36.4354 189.257 33.6567L187.116 26.4596C187.663 26.7329 188.3 26.824 189.075 26.824C192.309 26.824 195.543 24.1821 195.543 20.3102C195.543 18.6704 194.769 17.6227 193.311 17.6227C190.806 17.6227 187.207 20.9479 185.658 27.234L183.107 37.4375H176.912L184.246 8.148C184.474 7.14587 184.565 6.4626 184.565 5.91598C184.565 4.68609 184.018 4.09393 182.925 3.41066V3.31956H191.626ZM217.912 30.1948L222.695 11.0633C223.014 9.9245 223.151 9.01347 223.151 8.28465C223.151 7.10032 222.695 6.32594 221.647 5.64267V5.55157H233.081L233.035 5.64267C230.758 6.78146 230.074 8.05689 229.3 11.0633L225.018 28.1906C223.287 35.0688 218.596 37.893 212.537 37.893C207.8 37.893 204.019 35.5699 204.019 31.6525C204.019 27.8717 207.025 25.8675 210.032 25.8675C211.854 25.8675 213.22 26.5963 213.767 27.644C211.08 27.7351 209.349 30.3315 209.349 33.2923C209.349 35.3877 210.442 37.0275 212.537 37.0275C215.452 37.0275 216.91 34.2945 217.912 30.1948ZM248.267 23.4532L245.853 33.2923C245.352 35.4332 246.855 36.3443 249.269 35.1144V35.2055C247.629 37.0731 245.899 37.893 243.803 37.893C241.207 37.893 239.658 36.2532 239.704 33.7478C239.704 33.3379 239.795 32.8824 239.931 32.3813C238.246 35.5243 236.059 37.8475 232.598 37.8475C228.908 37.8475 226.63 34.8866 226.63 30.3315C226.63 22.4511 232.142 14.5707 238.838 14.5707C242.027 14.5707 243.758 16.4839 244.35 19.0803C245.899 16.7116 248.131 15.2085 250.727 14.6163C249.77 17.3494 248.905 20.7657 248.267 23.4532ZM235.467 35.251C237.563 35.251 239.84 32.3813 240.842 28.4183L242.209 23.0888C242.573 21.6312 242.756 20.4469 242.756 19.5358C242.756 17.2127 241.662 16.1195 240.205 16.1195C236.333 16.1195 232.916 25.4119 232.916 31.2425C232.916 33.7478 233.736 35.251 235.467 35.251ZM254.334 8.10244C254.334 5.96153 256.019 4.23058 258.251 4.23058C260.301 4.23058 261.713 5.73377 261.713 7.64693C261.713 9.78784 260.028 11.5188 257.841 11.5188C255.746 11.5188 254.334 10.0612 254.334 8.10244ZM259.8 15.0262L255.245 33.2923C255.199 33.6112 255.154 33.8845 255.154 34.1578C255.154 35.1144 255.7 35.7065 256.657 35.7065C257.203 35.7065 257.841 35.5243 258.57 35.1144V35.2055C257.021 37.0731 255.199 37.893 253.24 37.893C250.507 37.893 249.095 36.2987 249.095 33.9756C249.095 33.4745 249.141 32.9279 249.278 32.3358L252.421 19.8547C252.648 18.8526 252.785 18.1693 252.785 17.6227C252.785 16.4839 252.284 15.8462 251.282 15.1173V15.0262H259.8ZM267.032 25.3208L264.025 37.4375H257.785L262.203 19.8547C262.431 18.8526 262.568 18.1693 262.568 17.6227C262.568 16.4839 262.067 15.8462 261.065 15.1173V15.0262H269.583L268.08 21.1301C270.038 17.2583 272.817 14.6163 276.37 14.6163C279.422 14.6163 280.788 16.575 280.788 19.217C280.788 19.9913 280.697 20.8113 280.47 21.6312L277.554 33.2923C277.509 33.6112 277.463 33.8845 277.463 34.1578C277.463 35.1144 278.01 35.7065 278.966 35.7065C279.513 35.7065 280.151 35.5243 280.879 35.1144V35.2055C279.331 37.0731 277.509 37.893 275.55 37.893C272.817 37.893 271.359 36.2987 271.359 33.9756C271.359 33.4745 271.45 32.9279 271.587 32.3358L274.32 21.5856C274.457 20.8568 274.593 20.2191 274.593 19.6725C274.593 18.6248 274.138 17.9415 272.908 17.9415C270.858 17.9415 268.307 20.2191 267.032 25.3208Z" fill="white"/>
<rect y="0.5625" width="50.2061" height="50.2061" rx="7.72401" fill="url(#paint0_linear_419_13082)"/>
<path d="M19.2735 33.3077C17.1351 33.3077 15.779 31.5865 15.779 28.9527C15.779 24.4673 18.6998 19.9558 22.3767 19.9558C24.0979 19.9558 25.2192 21.1032 25.3496 22.7461L26.9143 16.2788C27.0447 15.7051 27.1229 15.2879 27.1229 14.9749C27.1229 14.2969 26.81 13.9579 26.1841 13.5667V13.5146H31.165L26.9143 30.6738C26.8621 30.8563 26.8621 31.0128 26.8621 31.1693C26.8621 31.7169 27.1751 32.0559 27.7227 32.0559C28.0356 32.0559 28.4007 31.9516 28.818 31.7169L28.844 31.7691C27.9313 32.8383 26.8882 33.3077 25.7669 33.3077C24.2804 33.3077 23.3938 32.3949 23.3938 30.9867C23.3938 30.8042 23.4459 30.4912 23.5242 30.1262C22.5854 31.9255 21.2554 33.3077 19.2735 33.3077ZM19.3778 29.4742C19.3778 30.9085 19.8472 31.7691 20.9164 31.7691C22.1681 31.7691 23.472 30.2044 24.0457 27.8835L24.7498 25.0931C24.9324 24.389 25.0367 23.7632 25.0367 23.2416C25.0367 21.8334 24.3326 21.1032 23.4198 21.1032C21.2293 21.1032 19.3778 26.1623 19.3778 29.4742ZM31.9216 16.2528C31.9216 15.0271 32.9126 14.0361 34.1643 14.0361C35.3639 14.0361 36.1723 14.8967 36.1723 15.992C36.1723 17.2176 35.2074 18.2086 33.9296 18.2086C32.73 18.2086 31.9216 17.3741 31.9216 16.2528ZM35.0249 20.2166L32.052 32.1081C30.7742 37.1411 28.8705 39.0709 25.6629 39.0709C23.8375 39.0709 22.4032 38.2103 22.4032 36.8021C22.4032 35.3939 23.5506 34.6115 24.8806 34.6115C25.5326 34.6115 26.0802 34.8462 26.3149 35.1853C25.35 35.42 24.7241 36.2284 24.7241 37.4019C24.7241 38.1321 25.0632 38.6275 25.7151 38.6275C26.7061 38.6275 27.2015 37.3758 27.9578 34.2725L30.7742 22.9808C30.9307 22.4071 31.0089 22.016 31.0089 21.703C31.0089 21.0511 30.722 20.686 30.1483 20.2687V20.2166H35.0249Z" fill="white"/>
<defs>
<linearGradient id="paint0_linear_419_13082" x1="4" y1="4" x2="38" y2="48.5" gradientUnits="userSpaceOnUse">
<stop stop-color="#EE3AFE"/>
<stop offset="1" stop-color="#803BD8"/>
</linearGradient>
</defs>
</svg>
